<svg width="186" height="42" viewBox="0 0 186 42" fill="none" xmlns="http://www.w3.org/2000/svg">
<g filter="url(#filter0_diii_202_7692)">
<path d="M4 6C4 2.68629 6.68629 0 10 0H176C179.314 0 182 2.68629 182 6V28C182 31.3137 179.314 34 176 34H10C6.68629 34 4 31.3137 4 28V6Z" fill="url(#paint0_linear_202_7692)"/>
<g filter="url(#filter1_d_202_7692)">
<path d="M63.0664 8.3125V14H61.7969L59.6484 10.3242V14H58.375V8.3125H59.6484L61.8008 11.9883V8.3125H63.0664ZM67.875 13.0156V14H64.8477V13.0156H67.875ZM65.2812 8.3125V14H64.0078V8.3125H65.2812ZM67.4844 10.6016V11.5547H64.8477V10.6016H67.4844ZM67.8789 8.3125V9.30078H64.8477V8.3125H67.8789ZM69.8438 13.2891L70.9766 8.3125H71.6289L71.8867 8.92969L70.6797 14H69.9648L69.8438 13.2891ZM69.4023 8.3125L70.3516 13.3125L70.1875 14H69.375L68.1406 8.3125H69.4023ZM72.6953 13.2852L73.6328 8.3125H74.8906L73.6562 14H72.8516L72.6953 13.2852ZM72.0547 8.3125L73.2031 13.3164L73.0703 14H72.3594L71.1328 8.92578L71.4023 8.3125H72.0547ZM78.3789 8.3125L79.4922 10.8438L80.6133 8.3125H81.9883L80.1406 11.9453V14H78.8477V11.9453L76.9961 8.3125H78.3789ZM87.0859 11.0312V11.2852C87.0859 11.7174 87.026 12.1055 86.9062 12.4492C86.7891 12.793 86.6211 13.0859 86.4023 13.3281C86.1862 13.5703 85.9284 13.7565 85.6289 13.8867C85.332 14.0143 85.0026 14.0781 84.6406 14.0781C84.2786 14.0781 83.9479 14.0143 83.6484 13.8867C83.349 13.7565 83.0885 13.5703 82.8672 13.3281C82.6484 13.0859 82.4792 12.793 82.3594 12.4492C82.2396 12.1055 82.1797 11.7174 82.1797 11.2852V11.0312C82.1797 10.599 82.2396 10.2109 82.3594 9.86719C82.4792 9.52083 82.6471 9.22656 82.8633 8.98438C83.082 8.74219 83.3411 8.55729 83.6406 8.42969C83.9401 8.29948 84.2708 8.23438 84.6328 8.23438C84.9948 8.23438 85.3255 8.29948 85.625 8.42969C85.9245 8.55729 86.1823 8.74219 86.3984 8.98438C86.6172 9.22656 86.7865 9.52083 86.9062 9.86719C87.026 10.2109 87.0859 10.599 87.0859 11.0312ZM85.8008 11.2852V11.0234C85.8008 10.7344 85.7747 10.4792 85.7227 10.2578C85.6706 10.0339 85.5951 9.84635 85.4961 9.69531C85.3971 9.54427 85.2747 9.43099 85.1289 9.35547C84.9831 9.27734 84.8177 9.23828 84.6328 9.23828C84.4401 9.23828 84.2721 9.27734 84.1289 9.35547C83.9857 9.43099 83.8646 9.54427 83.7656 9.69531C83.6693 9.84635 83.5951 10.0339 83.543 10.2578C83.4935 10.4792 83.4688 10.7344 83.4688 11.0234V11.2852C83.4688 11.5716 83.4935 11.8268 83.543 12.0508C83.5951 12.2721 83.6706 12.4596 83.7695 12.6133C83.8685 12.7669 83.9896 12.8828 84.1328 12.9609C84.2786 13.0391 84.4479 13.0781 84.6406 13.0781C84.8255 13.0781 84.9896 13.0391 85.1328 12.9609C85.2786 12.8828 85.401 12.7669 85.5 12.6133C85.599 12.4596 85.6732 12.2721 85.7227 12.0508C85.7747 11.8268 85.8008 11.5716 85.8008 11.2852ZM87.8672 8.3125H90.0508C90.4857 8.3125 90.862 8.3776 91.1797 8.50781C91.5 8.63802 91.7461 8.83073 91.918 9.08594C92.0898 9.34115 92.1758 9.65625 92.1758 10.0312C92.1758 10.3438 92.125 10.6094 92.0234 10.8281C91.9219 11.0469 91.7786 11.2279 91.5938 11.3711C91.4115 11.5143 91.1979 11.6302 90.9531 11.7188L90.5391 11.9453H88.6797L88.6719 10.957H90.0547C90.2448 10.957 90.4023 10.9232 90.5273 10.8555C90.6523 10.7878 90.7461 10.6927 90.8086 10.5703C90.8737 10.4453 90.9062 10.2995 90.9062 10.1328C90.9062 9.96094 90.8737 9.8125 90.8086 9.6875C90.7435 9.5625 90.6471 9.46745 90.5195 9.40234C90.3945 9.33464 90.2383 9.30078 90.0508 9.30078H89.1406V14H87.8672V8.3125ZM91.0156 14L89.7383 11.4727L91.082 11.4688L92.3789 13.9414V14H91.0156ZM94.3125 8.3125V14H93.0391V8.3125H94.3125ZM97.7109 8.3125L95.4844 11.1562L94.1875 12.5625L93.957 11.3789L94.8125 10.1523L96.1484 8.3125H97.7109ZM96.2344 14L94.6641 11.4023L95.6328 10.6484L97.7422 14H96.2344ZM101.406 8.3125V14H100.133V8.3125H101.406ZM104.805 8.3125L102.578 11.1562L101.281 12.5625L101.051 11.3789L101.906 10.1523L103.242 8.3125H104.805ZM103.328 14L101.758 11.4023L102.727 10.6484L104.836 14H103.328ZM109.926 8.3125V14H108.656L106.508 10.3242V14H105.234V8.3125H106.508L108.66 11.9883V8.3125H109.926ZM112.223 8.3125V14H110.953V8.3125H112.223ZM116.52 12.0938H117.785C117.764 12.4844 117.658 12.8294 117.465 13.1289C117.275 13.4258 117.01 13.6589 116.672 13.8281C116.333 13.9948 115.931 14.0781 115.465 14.0781C115.092 14.0781 114.759 14.0143 114.465 13.8867C114.171 13.7591 113.921 13.5768 113.715 13.3398C113.512 13.1003 113.355 12.8125 113.246 12.4766C113.139 12.138 113.086 11.7565 113.086 11.332V10.9844C113.086 10.5599 113.142 10.1784 113.254 9.83984C113.366 9.5013 113.526 9.21224 113.734 8.97266C113.943 8.73307 114.193 8.54948 114.484 8.42188C114.776 8.29427 115.102 8.23047 115.461 8.23047C115.945 8.23047 116.354 8.31771 116.688 8.49219C117.021 8.66667 117.279 8.90625 117.461 9.21094C117.646 9.51562 117.757 9.86328 117.793 10.2539H116.523C116.513 10.0326 116.471 9.84635 116.398 9.69531C116.326 9.54167 116.214 9.42578 116.062 9.34766C115.911 9.26953 115.711 9.23047 115.461 9.23047C115.279 9.23047 115.118 9.26432 114.98 9.33203C114.845 9.39974 114.732 9.50521 114.641 9.64844C114.552 9.79167 114.486 9.97396 114.441 10.1953C114.397 10.4141 114.375 10.6745 114.375 10.9766V11.332C114.375 11.6315 114.395 11.8906 114.434 12.1094C114.473 12.3281 114.535 12.5091 114.621 12.6523C114.71 12.7956 114.823 12.9023 114.961 12.9727C115.099 13.043 115.267 13.0781 115.465 13.0781C115.691 13.0781 115.88 13.043 116.031 12.9727C116.182 12.8997 116.298 12.7904 116.379 12.6445C116.46 12.4987 116.507 12.3151 116.52 12.0938ZM119.766 8.3125V14H118.492V8.3125H119.766ZM123.164 8.3125L120.938 11.1562L119.641 12.5625L119.41 11.3789L120.266 10.1523L121.602 8.3125H123.164ZM121.688 14L120.117 11.4023L121.086 10.6484L123.195 14H121.688ZM126.543 12.5C126.543 12.4036 126.529 12.3177 126.5 12.2422C126.471 12.1641 126.419 12.0924 126.344 12.0273C126.268 11.9622 126.161 11.8971 126.023 11.832C125.885 11.7643 125.704 11.6953 125.48 11.625C125.225 11.5417 124.982 11.4479 124.75 11.3438C124.521 11.237 124.316 11.1133 124.137 10.9727C123.957 10.832 123.815 10.668 123.711 10.4805C123.609 10.293 123.559 10.0742 123.559 9.82422C123.559 9.58203 123.612 9.36328 123.719 9.16797C123.826 8.97266 123.975 8.80599 124.168 8.66797C124.361 8.52734 124.587 8.42057 124.848 8.34766C125.108 8.27214 125.395 8.23438 125.707 8.23438C126.124 8.23438 126.49 8.30859 126.805 8.45703C127.122 8.60286 127.37 8.80859 127.547 9.07422C127.724 9.33724 127.812 9.64323 127.812 9.99219H126.547C126.547 9.83854 126.514 9.70312 126.449 9.58594C126.387 9.46615 126.29 9.3724 126.16 9.30469C126.033 9.23698 125.872 9.20312 125.68 9.20312C125.492 9.20312 125.335 9.23177 125.207 9.28906C125.082 9.34375 124.987 9.41927 124.922 9.51562C124.859 9.61198 124.828 9.71745 124.828 9.83203C124.828 9.92318 124.852 10.0065 124.898 10.082C124.948 10.1549 125.018 10.224 125.109 10.2891C125.203 10.3516 125.318 10.4115 125.453 10.4688C125.589 10.526 125.743 10.5807 125.918 10.6328C126.223 10.7292 126.492 10.8359 126.727 10.9531C126.964 11.0703 127.163 11.2031 127.324 11.3516C127.486 11.5 127.607 11.668 127.688 11.8555C127.771 12.043 127.812 12.2552 127.812 12.4922C127.812 12.7448 127.763 12.9688 127.664 13.1641C127.568 13.3594 127.427 13.526 127.242 13.6641C127.06 13.7995 126.841 13.9023 126.586 13.9727C126.331 14.043 126.046 14.0781 125.73 14.0781C125.444 14.0781 125.161 14.0417 124.883 13.9688C124.604 13.8932 124.352 13.7786 124.125 13.625C123.901 13.4714 123.721 13.276 123.586 13.0391C123.453 12.7995 123.387 12.5156 123.387 12.1875H124.66C124.66 12.3594 124.685 12.5052 124.734 12.625C124.784 12.7422 124.854 12.8372 124.945 12.9102C125.039 12.9831 125.152 13.0352 125.285 13.0664C125.418 13.0977 125.566 13.1133 125.73 13.1133C125.921 13.1133 126.074 13.0872 126.191 13.0352C126.311 12.9805 126.4 12.9062 126.457 12.8125C126.514 12.7188 126.543 12.6146 126.543 12.5Z" fill="#1C1F1F"/>
</g>
<g filter="url(#filter2_d_202_7692)">
<path d="M85.6406 15.4688V24H83.666V17.6953L81.7207 18.2637V16.7637L85.459 15.4688H85.6406ZM88.3887 23.0742C88.3887 22.793 88.4902 22.5586 88.6934 22.3711C88.8965 22.1797 89.1582 22.084 89.4785 22.084C89.8027 22.084 90.0645 22.1797 90.2637 22.3711C90.4668 22.5586 90.5684 22.793 90.5684 23.0742C90.5684 23.3555 90.4668 23.5918 90.2637 23.7832C90.0645 23.9707 89.8027 24.0645 89.4785 24.0645C89.1582 24.0645 88.8965 23.9707 88.6934 23.7832C88.4902 23.5918 88.3887 23.3555 88.3887 23.0742ZM96.3105 15.3457H96.627V16.8984H96.5215C96.1426 16.8984 95.7871 16.9512 95.4551 17.0566C95.127 17.1621 94.8379 17.3223 94.5879 17.5371C94.3418 17.748 94.1484 18.0156 94.0078 18.3398C93.8711 18.6641 93.8027 19.0449 93.8027 19.4824V20.9766C93.8027 21.25 93.8262 21.4883 93.873 21.6914C93.9199 21.8945 93.9902 22.0625 94.084 22.1953C94.1777 22.3281 94.293 22.4277 94.4297 22.4941C94.5703 22.5605 94.7324 22.5938 94.916 22.5938C95.0684 22.5938 95.209 22.5586 95.3379 22.4883C95.4668 22.418 95.5781 22.3184 95.6719 22.1895C95.7695 22.0605 95.8438 21.9102 95.8945 21.7383C95.9453 21.5664 95.9707 21.3789 95.9707 21.1758C95.9707 20.957 95.9434 20.7598 95.8887 20.584C95.834 20.4082 95.7559 20.2598 95.6543 20.1387C95.5566 20.0137 95.4375 19.9199 95.2969 19.8574C95.1602 19.791 95.0098 19.7578 94.8457 19.7578C94.5957 19.7578 94.3828 19.8145 94.207 19.9277C94.0352 20.0371 93.9043 20.1777 93.8145 20.3496C93.7285 20.5215 93.6855 20.6953 93.6855 20.8711L93.2109 20.3906C93.2031 20.1562 93.248 19.9141 93.3457 19.6641C93.4434 19.4141 93.5898 19.1816 93.7852 18.9668C93.9805 18.752 94.2246 18.5781 94.5176 18.4453C94.8105 18.3125 95.1504 18.2461 95.5371 18.2461C95.9277 18.2461 96.2715 18.3203 96.5684 18.4688C96.8691 18.6172 97.1211 18.8242 97.3242 19.0898C97.5312 19.3555 97.6875 19.666 97.793 20.0215C97.8984 20.377 97.9512 20.7617 97.9512 21.1758C97.9512 21.5938 97.877 21.9824 97.7285 22.3418C97.584 22.6973 97.3789 23.0078 97.1133 23.2734C96.8477 23.5391 96.5332 23.7461 96.1699 23.8945C95.8066 24.043 95.4062 24.1172 94.9688 24.1172C94.5195 24.1172 94.1035 24.041 93.7207 23.8887C93.3418 23.7324 93.0098 23.5078 92.7246 23.2148C92.4434 22.918 92.2227 22.5566 92.0625 22.1309C91.9062 21.7051 91.8281 21.2227 91.8281 20.6836V19.9629C91.8281 19.2324 91.9473 18.582 92.1855 18.0117C92.4277 17.4414 92.7559 16.959 93.1699 16.5645C93.5879 16.166 94.0664 15.8633 94.6055 15.6562C95.1445 15.4492 95.7129 15.3457 96.3105 15.3457ZM104.748 18.9551V20.5137C104.748 21.127 104.676 21.6602 104.531 22.1133C104.391 22.5664 104.188 22.9414 103.922 23.2383C103.66 23.5352 103.348 23.7559 102.984 23.9004C102.621 24.0449 102.221 24.1172 101.783 24.1172C101.432 24.1172 101.104 24.0723 100.799 23.9824C100.494 23.8887 100.219 23.748 99.9727 23.5605C99.7305 23.3691 99.5215 23.1309 99.3457 22.8457C99.1699 22.5605 99.0352 22.2246 98.9414 21.8379C98.8477 21.4473 98.8008 21.0059 98.8008 20.5137V18.9551C98.8008 18.3379 98.8711 17.8047 99.0117 17.3555C99.1562 16.9023 99.3613 16.5273 99.627 16.2305C99.8926 15.9336 100.207 15.7129 100.57 15.5684C100.934 15.4238 101.334 15.3516 101.771 15.3516C102.123 15.3516 102.449 15.3984 102.75 15.4922C103.055 15.582 103.33 15.7227 103.576 15.9141C103.822 16.1016 104.031 16.3379 104.203 16.623C104.379 16.9082 104.514 17.2461 104.607 17.6367C104.701 18.0234 104.748 18.4629 104.748 18.9551ZM102.773 20.7539V18.7031C102.773 18.4297 102.758 18.1914 102.727 17.9883C102.699 17.7852 102.656 17.6133 102.598 17.4727C102.543 17.332 102.475 17.2188 102.393 17.1328C102.311 17.043 102.217 16.9785 102.111 16.9395C102.01 16.8965 101.896 16.875 101.771 16.875C101.615 16.875 101.475 16.9082 101.35 16.9746C101.229 17.0371 101.125 17.1387 101.039 17.2793C100.953 17.4199 100.887 17.6074 100.84 17.8418C100.797 18.0762 100.775 18.3633 100.775 18.7031V20.7539C100.775 21.0312 100.789 21.2734 100.816 21.4805C100.848 21.6836 100.891 21.8574 100.945 22.002C101.004 22.1426 101.074 22.2578 101.156 22.3477C101.238 22.4336 101.332 22.4961 101.438 22.5352C101.543 22.5742 101.658 22.5938 101.783 22.5938C101.936 22.5938 102.072 22.5625 102.193 22.5C102.314 22.4375 102.418 22.3359 102.504 22.1953C102.594 22.0508 102.66 21.8613 102.703 21.627C102.75 21.3887 102.773 21.0977 102.773 20.7539Z" fill="#1C1F1F"/>
</g>
</g>
<defs>
<filter id="filter0_diii_202_7692" x="0" y="0" width="186" height="42" filterUnits="userSpaceOnUse" color-interpolation-filters="sRGB">
<feFlood flood-opacity="0" result="BackgroundImageFix"/>
<feColorMatrix in="SourceAlpha" type="matrix" values="0 0 0 0 0 0 0 0 0 0 0 0 0 0 0 0 0 0 127 0" result="hardAlpha"/>
<feOffset dy="4"/>
<feGaussianBlur stdDeviation="2"/>
<feComposite in2="hardAlpha" operator="out"/>
<feColorMatrix type="matrix" values="0 0 0 0 0 0 0 0 0 0 0 0 0 0 0 0 0 0 0.25 0"/>
<feBlend mode="normal" in2="BackgroundImageFix" result="effect1_dropShadow_202_7692"/>
<feBlend mode="normal" in="SourceGraphic" in2="effect1_dropShadow_202_7692" result="shape"/>
<feColorMatrix in="SourceAlpha" type="matrix" values="0 0 0 0 0 0 0 0 0 0 0 0 0 0 0 0 0 0 127 0" result="hardAlpha"/>
<feMorphology radius="4" operator="erode" in="SourceAlpha" result="effect2_innerShadow_202_7692"/>
<feOffset/>
<feComposite in2="hardAlpha" operator="arithmetic" k2="-1" k3="1"/>
<feColorMatrix type="matrix" values="0 0 0 0 1 0 0 0 0 1 0 0 0 0 1 0 0 0 0.3 0"/>
<feBlend mode="overlay" in2="shape" result="effect2_innerShadow_202_7692"/>
<feColorMatrix in="SourceAlpha" type="matrix" values="0 0 0 0 0 0 0 0 0 0 0 0 0 0 0 0 0 0 127 0" result="hardAlpha"/>
<feMorphology radius="3" operator="erode" in="SourceAlpha" result="effect3_innerShadow_202_7692"/>
<feOffset/>
<feComposite in2="hardAlpha" operator="arithmetic" k2="-1" k3="1"/>
<feColorMatrix type="matrix" values="0 0 0 0 0.741176 0 0 0 0 0.529412 0 0 0 0 0.243137 0 0 0 1 0"/>
<feBlend mode="normal" in2="effect2_innerShadow_202_7692" result="effect3_innerShadow_202_7692"/>
<feColorMatrix in="SourceAlpha" type="matrix" values="0 0 0 0 0 0 0 0 0 0 0 0 0 0 0 0 0 0 127 0" result="hardAlpha"/>
<feMorphology radius="2" operator="erode" in="SourceAlpha" result="effect4_innerShadow_202_7692"/>
<feOffset/>
<feComposite in2="hardAlpha" operator="arithmetic" k2="-1" k3="1"/>
<feColorMatrix type="matrix" values="0 0 0 0 1 0 0 0 0 0.839216 0 0 0 0 0.619608 0 0 0 1 0"/>
<feBlend mode="normal" in2="effect3_innerShadow_202_7692" result="effect4_innerShadow_202_7692"/>
</filter>
<filter id="filter1_d_202_7692" x="58.375" y="8.23047" width="69.4375" height="6.84766" filterUnits="userSpaceOnUse" color-interpolation-filters="sRGB">
<feFlood flood-opacity="0" result="BackgroundImageFix"/>
<feColorMatrix in="SourceAlpha" type="matrix" values="0 0 0 0 0 0 0 0 0 0 0 0 0 0 0 0 0 0 127 0" result="hardAlpha"/>
<feOffset dy="1"/>
<feComposite in2="hardAlpha" operator="out"/>
<feColorMatrix type="matrix" values="0 0 0 0 1 0 0 0 0 1 0 0 0 0 1 0 0 0 0.35 0"/>
<feBlend mode="normal" in2="BackgroundImageFix" result="effect1_dropShadow_202_7692"/>
<feBlend mode="normal" in="SourceGraphic" in2="effect1_dropShadow_202_7692" result="shape"/>
</filter>
<filter id="filter2_d_202_7692" x="81.7207" y="15.3457" width="23.0273" height="9.77148" filterUnits="userSpaceOnUse" color-interpolation-filters="sRGB">
<feFlood flood-opacity="0" result="BackgroundImageFix"/>
<feColorMatrix in="SourceAlpha" type="matrix" values="0 0 0 0 0 0 0 0 0 0 0 0 0 0 0 0 0 0 127 0" result="hardAlpha"/>
<feOffset dy="1"/>
<feComposite in2="hardAlpha" operator="out"/>
<feColorMatrix type="matrix" values="0 0 0 0 1 0 0 0 0 1 0 0 0 0 1 0 0 0 0.35 0"/>
<feBlend mode="normal" in2="BackgroundImageFix" result="effect1_dropShadow_202_7692"/>
<feBlend mode="normal" in="SourceGraphic" in2="effect1_dropShadow_202_7692" result="shape"/>
</filter>
<linearGradient id="paint0_linear_202_7692" x1="93" y1="0" x2="93" y2="34" gradientUnits="userSpaceOnUse">
<stop stop-color="#FFB953"/>
<stop offset="1" stop-color="#FFA727"/>
</linearGradient>
</defs>
</svg>
